<svg xmlns="http://www.w3.org/2000/svg" viewBox="0 0 720 130" width="720" height="130" font-family="Arial, 'PingFang SC', 'Microsoft YaHei', sans-serif">
  <defs>
    <marker id="arr" markerWidth="8" markerHeight="8" refX="6" refY="3" orient="auto">
      <path d="M0,0 L0,6 L8,3 z" fill="#7f8c8d"/>
    </marker>
  </defs>
  <rect width="720" height="130" rx="12" fill="#f8f9fa"/>
  <text x="360" y="24" text-anchor="middle" font-size="15" font-weight="bold" fill="#2c3e50">Function Calling Full Flow</text>

  <!-- 步骤1 -->
  <rect x="16" y="40" width="118" height="72" rx="8" fill="#3498db" opacity="0.12"/>
  <rect x="16" y="40" width="118" height="6" rx="4" fill="#3498db"/>
  <text x="75" y="66" text-anchor="middle" font-size="11" font-weight="bold" fill="#2980b9">步骤1</text>
  <text x="75" y="82" text-anchor="middle" font-size="11" fill="#2c3e50">定义Tools</text>
  <text x="75" y="97" text-anchor="middle" font-size="10" fill="#7f8c8d">JSON Schema</text>
  <text x="75" y="109" text-anchor="middle" font-size="10" fill="#7f8c8d">描述Function</text>

  <line x1="134" y1="76" x2="150" y2="76" stroke="#7f8c8d" stroke-width="1.5" marker-end="url(#arr)"/>

  <!-- 步骤2 -->
  <rect x="152" y="40" width="118" height="72" rx="8" fill="#9b59b6" opacity="0.12"/>
  <rect x="152" y="40" width="118" height="6" rx="4" fill="#9b59b6"/>
  <text x="211" y="66" text-anchor="middle" font-size="11" font-weight="bold" fill="#8e44ad">步骤2</text>
  <text x="211" y="82" text-anchor="middle" font-size="11" fill="#2c3e50">LLM Reasoning</text>
  <text x="211" y="97" text-anchor="middle" font-size="10" fill="#7f8c8d">AnalysisRequest</text>
  <text x="211" y="109" text-anchor="middle" font-size="10" fill="#7f8c8d">Decide调用</text>

  <line x1="270" y1="76" x2="286" y2="76" stroke="#7f8c8d" stroke-width="1.5" marker-end="url(#arr)"/>

  <!-- 步骤3 -->
  <rect x="288" y="40" width="118" height="72" rx="8" fill="#27ae60" opacity="0.12"/>
  <rect x="288" y="40" width="118" height="6" rx="4" fill="#27ae60"/>
  <text x="347" y="66" text-anchor="middle" font-size="11" font-weight="bold" fill="#27ae60">步骤3</text>
  <text x="347" y="82" text-anchor="middle" font-size="11" fill="#2c3e50">应用程序Execution</text>
  <text x="347" y="97" text-anchor="middle" font-size="10" fill="#7f8c8d">解析参数</text>
  <text x="347" y="109" text-anchor="middle" font-size="10" fill="#7f8c8d">调用Function</text>

  <line x1="406" y1="76" x2="422" y2="76" stroke="#7f8c8d" stroke-width="1.5" marker-end="url(#arr)"/>

  <!-- 步骤4 -->
  <rect x="424" y="40" width="118" height="72" rx="8" fill="#e67e22" opacity="0.12"/>
  <rect x="424" y="40" width="118" height="6" rx="4" fill="#e67e22"/>
  <text x="483" y="66" text-anchor="middle" font-size="11" font-weight="bold" fill="#e67e22">步骤4</text>
  <text x="483" y="82" text-anchor="middle" font-size="11" fill="#2c3e50">Result反馈</text>
  <text x="483" y="97" text-anchor="middle" font-size="10" fill="#7f8c8d">tool Message</text>
  <text x="483" y="109" text-anchor="middle" font-size="10" fill="#7f8c8d">返回Result</text>

  <line x1="542" y1="76" x2="558" y2="76" stroke="#7f8c8d" stroke-width="1.5" marker-end="url(#arr)"/>

  <!-- 步骤5 -->
  <rect x="560" y="40" width="144" height="72" rx="8" fill="#e74c3c" opacity="0.12"/>
  <rect x="560" y="40" width="144" height="6" rx="4" fill="#e74c3c"/>
  <text x="632" y="66" text-anchor="middle" font-size="11" font-weight="bold" fill="#e74c3c">步骤5</text>
  <text x="632" y="82" text-anchor="middle" font-size="11" fill="#2c3e50">最终回复</text>
  <text x="632" y="97" text-anchor="middle" font-size="10" fill="#7f8c8d">based onToolsResult</text>
  <text x="632" y="109" text-anchor="middle" font-size="10" fill="#7f8c8d">自然语言回复</text>
</svg>
