<svg xmlns="http://www.w3.org/2000/svg" viewBox="0 0 760 220" width="760" height="220" font-family="Arial, 'PingFang SC', 'Microsoft YaHei', sans-serif">
  <defs>
    <marker id="arrow" markerWidth="8" markerHeight="8" refX="6" refY="3" orient="auto">
      <path d="M0,0 L0,6 L8,3 z" fill="#555"/>
    </marker>
  </defs>
  <!-- Background -->
  <rect width="760" height="220" rx="12" fill="#f8f9fa"/>
  <!-- Title -->
  <text x="380" y="32" text-anchor="middle" font-size="16" font-weight="bold" fill="#2c3e50">Recommended Learning Paths</text>

  <!-- Path 1: Beginners -->
  <rect x="20" y="55" width="720" height="44" rx="8" fill="#e8f5e9"/>
  <text x="36" y="72" font-size="13" fill="#27ae60">🟢 Complete Beginners</text>
  <!-- Chapter nodes -->
  <rect x="160" y="60" width="52" height="28" rx="6" fill="#27ae60"/>
  <text x="186" y="79" text-anchor="middle" font-size="12" fill="white">Ch.1</text>
  <line x1="212" y1="74" x2="228" y2="74" stroke="#555" stroke-width="1.5" marker-end="url(#arrow)"/>
  <rect x="230" y="60" width="52" height="28" rx="6" fill="#27ae60"/>
  <text x="256" y="79" text-anchor="middle" font-size="12" fill="white">Ch.2</text>
  <line x1="282" y1="74" x2="298" y2="74" stroke="#555" stroke-width="1.5" marker-end="url(#arrow)"/>
  <rect x="300" y="60" width="52" height="28" rx="6" fill="#27ae60"/>
  <text x="326" y="79" text-anchor="middle" font-size="12" fill="white">Ch.3</text>
  <line x1="352" y1="74" x2="368" y2="74" stroke="#555" stroke-width="1.5" marker-end="url(#arrow)"/>
  <rect x="370" y="60" width="52" height="28" rx="6" fill="#27ae60"/>
  <text x="396" y="79" text-anchor="middle" font-size="12" fill="white">Ch.4</text>
  <line x1="422" y1="74" x2="438" y2="74" stroke="#555" stroke-width="1.5" marker-end="url(#arrow)"/>
  <rect x="440" y="60" width="52" height="28" rx="6" fill="#27ae60"/>
  <text x="466" y="79" text-anchor="middle" font-size="12" fill="white">Ch.5</text>

  <!-- Path 2: LLM Experience -->
  <rect x="20" y="112" width="720" height="44" rx="8" fill="#fff8e1"/>
  <text x="36" y="129" font-size="13" fill="#f39c12">🟡 LLM Background</text>
  <rect x="160" y="117" width="52" height="28" rx="6" fill="#f39c12"/>
  <text x="186" y="136" text-anchor="middle" font-size="12" fill="white">Ch.3</text>
  <line x1="212" y1="131" x2="228" y2="131" stroke="#555" stroke-width="1.5" marker-end="url(#arrow)"/>
  <rect x="230" y="117" width="80" height="28" rx="6" fill="#f39c12"/>
  <text x="270" y="136" text-anchor="middle" font-size="12" fill="white">Ch.4-7</text>
  <line x1="310" y1="131" x2="326" y2="131" stroke="#555" stroke-width="1.5" marker-end="url(#arrow)"/>
  <rect x="328" y="117" width="80" height="28" rx="6" fill="#f39c12"/>
  <text x="368" y="136" text-anchor="middle" font-size="12" fill="white">Ch.8-9</text>

  <!-- Path 3: Hands-on First -->
  <rect x="20" y="169" width="720" height="44" rx="8" fill="#fce4ec"/>
  <text x="36" y="186" font-size="13" fill="#e74c3c">🔴 Hands-on First</text>
  <rect x="160" y="174" width="80" height="28" rx="6" fill="#e74c3c"/>
  <text x="200" y="193" text-anchor="middle" font-size="12" fill="white">Ch.8-9</text>
  <line x1="240" y1="188" x2="256" y2="188" stroke="#555" stroke-width="1.5" marker-end="url(#arrow)"/>
  <rect x="258" y="174" width="52" height="28" rx="6" fill="#e74c3c"/>
  <text x="284" y="193" text-anchor="middle" font-size="12" fill="white">Ch.11</text>
  <line x1="310" y1="188" x2="326" y2="188" stroke="#555" stroke-width="1.5" marker-end="url(#arrow)"/>
  <rect x="328" y="174" width="90" height="28" rx="6" fill="#e74c3c"/>
  <text x="373" y="193" text-anchor="middle" font-size="12" fill="white">Ch.16-18</text>
</svg>
